<svg width="344" height="126" viewBox="0 0 344 126" fill="none" xmlns="http://www.w3.org/2000/svg">
<path d="M67.8888 50.0962C67.8009 47.4596 65.6037 45.4381 62.9671 45.6139C60.3304 45.7018 58.309 47.899 58.4848 50.5356C58.5727 53.1723 60.7699 55.1937 63.4065 55.0179C66.0431 54.8421 68.0646 52.6449 67.8888 50.0962Z" fill="url(#paint0_linear)"/>
<path d="M59.8914 121.725C60.5066 124.186 58.3094 126.383 55.8485 125.944L54.5302 125.68C32.734 121.373 15.1564 107.927 6.27978 89.0307C-3.38789 68.465 -5.67297 30.3216 27.5486 9.49221C46.2687 -2.37265 63.4069 -0.966441 74.4807 2.28541C89.8611 6.85558 103.308 18.0173 109.548 31.5521C115.085 43.329 115.349 56.688 110.515 68.2013C105.681 79.6267 96.0133 88.4155 83.3574 92.8978C74.6565 95.9739 65.9556 96.2375 57.4305 93.7767C56.6395 101.687 57.3426 110.915 59.6277 120.407L59.8914 121.725ZM58.7488 8.70122C51.0147 8.70122 41.7865 10.6348 32.0309 16.7869C18.9356 24.9605 11.2015 36.7374 9.09219 51.6784C6.8071 68.2892 12.2562 81.6481 14.0139 85.3394C20.957 100.105 33.4371 110.651 49.6085 115.573C48.1144 106.696 47.8507 97.9074 48.9054 90.349C41.347 86.1304 35.3707 79.2752 32.4704 71.0137C29.3064 62.137 31.152 51.5026 37.3042 43.2411C43.4563 34.8918 52.8603 30.4095 62.7917 30.7611C84.2363 31.6399 91.7946 48.3386 92.7614 57.0395L92.8493 57.8305C93.113 59.7641 91.6189 61.6097 89.5975 61.7855L88.8065 61.8734C73.3382 63.3675 63.1432 71.3653 59.0125 85.2515C66.0435 87.4487 73.1624 87.273 80.3692 84.7242C90.8279 81.0329 98.4741 74.1777 102.429 64.8616C106.384 55.6333 106.032 44.8231 101.638 35.2434C96.3648 23.9058 85.0273 14.4139 71.932 10.6348C68.3286 9.49221 63.8463 8.70122 58.7488 8.70122ZM61.4733 39.5499C54.706 39.5499 48.4659 42.8017 44.2473 48.5144C39.8529 54.4908 38.4467 62.0491 40.6439 68.2013C42.5775 73.5625 46.3566 78.2205 51.1026 81.4724C55.9364 66.6193 67.1861 56.9516 82.918 54.0513C82.3906 52.5573 81.5118 50.7116 80.3692 48.9539C76.5022 43.0654 70.4379 39.9014 62.3522 39.5499C62.0886 39.5499 61.737 39.5499 61.4733 39.5499Z" fill="url(#paint1_linear)"/>
<path d="M42.6659 72.6835C41.3476 75.9353 40.3808 79.2751 39.502 82.9664C42.578 86.3061 45.3904 88.3275 48.906 90.3489C49.2575 87.0971 50.2243 84.021 51.0153 81.5601C51.0153 81.648 44.7752 76.9021 42.6659 72.6835Z" fill="url(#paint2_linear)"/>
<path d="M69.1197 91.8431C69.4713 90.0853 69.9107 88.2396 70.4381 86.7456C66.8347 86.9213 63.407 86.5698 59.0126 85.2515C58.1338 88.1518 57.6943 91.2278 57.4307 93.8645C61.122 94.9191 64.8132 95.4465 68.6803 95.5343C68.7682 94.3039 68.944 93.0735 69.1197 91.8431Z" fill="url(#paint3_linear)"/>
<path d="M143.825 78.3962V37.1768H160.611C163.248 37.1768 165.533 37.7041 167.467 38.6709C169.4 39.7255 170.982 41.1317 172.125 43.0652C173.267 44.9109 173.882 47.1081 173.882 49.6568V50.4478C173.882 52.9966 173.267 55.1938 172.125 57.0394C170.982 58.8851 169.4 60.3792 167.379 61.4338C165.445 62.4885 163.16 62.9279 160.611 62.9279H151.032V78.3962H143.825ZM151.032 56.5121H159.908C161.93 56.5121 163.599 55.9848 164.83 54.8422C166.06 53.6997 166.763 52.2056 166.763 50.272V49.6568C166.763 47.7233 166.148 46.2292 164.918 45.0867C163.687 43.9441 162.017 43.4168 159.908 43.4168H151.032V56.5121Z" fill="white"/>
<path d="M179.77 78.3962V37.1768H186.537V53.1723H187.504C187.856 52.4692 188.295 51.854 189.086 51.1509C189.789 50.4478 190.756 49.9205 191.899 49.4811C193.041 49.0416 194.535 48.8658 196.381 48.8658C198.666 48.8658 200.599 49.3932 202.357 50.3599C204.115 51.3267 205.433 52.7329 206.4 54.5786C207.367 56.4242 207.894 58.5335 207.894 60.9944V78.3962H201.127V61.5217C201.127 59.1487 200.512 57.391 199.369 56.2484C198.226 55.1059 196.557 54.4907 194.447 54.4907C192.074 54.4907 190.141 55.2817 188.735 56.8636C187.328 58.4456 186.625 60.7307 186.625 63.631V78.3962H179.77Z" fill="white"/>
<path d="M216.068 90.173V84.4603H221.605C222.396 84.4603 223.011 84.2845 223.363 84.0209C223.714 83.7572 224.066 83.3178 224.33 82.7026L225.121 80.769L212.904 49.3052H220.287L228.021 70.8377H228.988L236.722 49.3052H244.017L230.042 85.1634C229.339 86.9212 228.46 88.1516 227.406 88.9426C226.351 89.7336 224.681 90.173 222.308 90.173H216.068Z" fill="white"/>
<path d="M249.554 78.3962V37.1768H256.321V78.3962H249.554Z" fill="white"/>
<path d="M276.183 78.8355C273.898 78.8355 271.964 78.3082 270.206 77.3414C268.449 76.2867 267.13 74.8805 266.164 73.1228C265.197 71.2771 264.757 69.1678 264.757 66.707V49.3052H271.525V66.1796C271.525 68.5526 272.14 70.3104 273.282 71.4529C274.425 72.5955 276.095 73.1228 278.292 73.1228C280.665 73.1228 282.599 72.3318 284.005 70.7498C285.411 69.1678 286.114 66.8827 286.114 63.9825V49.3052H292.881V78.3961H286.29V74.3532H285.323C284.796 75.4079 283.829 76.4625 282.511 77.4293C280.929 78.3961 278.907 78.8355 276.183 78.8355Z" fill="white"/>
<path d="M301.407 78.3963V49.3054H308.087V52.5573H309.053C309.581 51.5905 310.372 50.7116 311.602 50.0085C312.833 49.2175 314.415 48.866 316.436 48.866C318.545 48.866 320.303 49.3054 321.621 50.1843C322.94 51.0632 323.907 52.1178 324.61 53.524H325.576C326.279 52.2057 327.246 51.0632 328.477 50.1843C329.707 49.3054 331.553 48.866 333.838 48.866C335.683 48.866 337.265 49.2175 338.76 50.0085C340.254 50.7995 341.484 51.942 342.275 53.524C343.154 55.0181 343.593 56.9517 343.593 59.2367V78.4842H336.826V59.5883C336.826 57.9184 336.387 56.6001 335.508 55.7212C334.629 54.8423 333.311 54.4029 331.729 54.4029C329.971 54.4029 328.565 55.0181 327.51 56.1607C326.455 57.3032 325.928 58.9731 325.928 61.0824V78.3084H319.161V59.5883C319.161 57.9184 318.721 56.6001 317.842 55.7212C316.963 54.8423 315.645 54.4029 314.063 54.4029C312.217 54.4029 310.811 55.0181 309.844 56.1607C308.79 57.3032 308.262 58.9731 308.262 61.0824V78.3084H301.407V78.3963Z" fill="white"/>
<defs>
<linearGradient id="paint0_linear" x1="104.359" y1="-13.4616" x2="10.7352" y2="131.498" gradientUnits="userSpaceOnUse">
<stop stop-color="#79F2EC"/>
<stop offset="1" stop-color="#005EF3"/>
</linearGradient>
<linearGradient id="paint1_linear" x1="92.3368" y1="-2.35489" x2="20.1449" y2="110.08" gradientUnits="userSpaceOnUse">
<stop stop-color="#79F2EC"/>
<stop offset="1" stop-color="#005EF3"/>
</linearGradient>
<linearGradient id="paint2_linear" x1="41.357" y1="78.345" x2="50.1214" y2="84.9385" gradientUnits="userSpaceOnUse">
<stop stop-color="#2D97EE" stop-opacity="0"/>
<stop offset="0.977" stop-color="#0260F1"/>
</linearGradient>
<linearGradient id="paint3_linear" x1="69.163" y1="91.2678" x2="57.6647" y2="89.4988" gradientUnits="userSpaceOnUse">
<stop stop-color="#2D97EE" stop-opacity="0"/>
<stop offset="0.977" stop-color="#0260F1"/>
</linearGradient>
</defs>
</svg>
