<svg width="256" height="256" viewBox="0 0 256 256" fill="none" xmlns="http://www.w3.org/2000/svg">
<path d="M149.789 101.598C149.594 96.3138 145.092 92.2039 139.808 92.3997C134.524 92.5954 130.414 97.0967 130.61 102.381C130.806 107.665 135.307 111.775 140.591 111.579C145.875 111.188 149.985 106.686 149.789 101.598Z" fill="url(#paint0_linear)"/>
<path d="M133.546 246.813C134.72 251.706 130.414 256.207 125.326 255.229L122.586 254.642C78.3558 245.835 42.7368 218.827 24.7317 180.273C5.16081 138.587 0.463808 61.2818 67.7875 19.0088C105.951 -4.86765 140.591 -1.93202 163.098 4.72207C194.215 13.9204 221.419 36.6225 234.14 64.0217C245.295 87.8981 245.882 114.906 236.097 138.391C226.311 161.485 206.74 179.294 180.907 188.492C163.293 194.755 145.679 195.342 128.457 190.449C126.891 206.497 128.457 225.285 132.763 244.465L133.546 246.813ZM131.197 17.6388C115.54 17.6388 96.9481 21.553 77.1815 34.0783C50.5652 50.7135 34.9085 74.3943 30.7986 104.729C26.1016 138.391 37.257 165.399 40.7797 173.031C54.8708 202.975 80.1171 224.307 112.996 234.288C110.061 216.283 109.278 198.473 111.43 183.208C95.9695 174.597 83.8356 160.702 77.9643 144.066C71.506 126.061 75.2244 104.533 87.7498 87.7024C100.079 70.8715 119.063 61.6732 139.221 62.4561C182.668 64.4131 197.934 98.075 200.086 115.689L200.282 117.45C200.674 121.364 197.738 125.083 193.824 125.474L192.062 125.67C160.749 128.41 140.004 144.654 131.784 172.64C146.071 177.141 160.553 176.75 175.036 171.661C196.368 164.224 211.633 150.329 219.853 131.345C227.877 112.557 227.094 90.6381 218.092 71.2629C207.523 48.365 184.43 29.1856 158.009 21.553C150.572 19.2045 141.57 17.6388 131.197 17.6388ZM136.677 80.2655C122.977 80.2655 110.452 86.7239 101.841 98.4664C92.8382 110.6 90.0983 125.866 94.5996 138.391C98.5137 149.155 106.146 158.745 115.736 165.399C125.521 135.26 148.419 115.689 180.32 109.817C179.146 106.686 177.58 102.968 175.231 99.4449C167.403 87.5067 155.073 81.2441 138.634 80.4612C137.851 80.2655 137.264 80.2655 136.677 80.2655Z" fill="url(#paint1_linear)"/>
<path d="M98.7097 147.198C95.9698 153.656 94.0127 160.702 92.447 167.943C98.7097 174.597 104.385 178.903 111.431 183.013C112.214 176.554 114.171 170.096 115.736 165.203C115.541 165.595 102.82 156.005 98.7097 147.198Z" fill="url(#paint2_linear)"/>
<path d="M152.334 186.144C152.921 182.621 153.899 178.902 155.073 175.771C147.832 176.162 140.787 175.38 131.98 172.835C130.219 178.707 129.24 184.774 128.653 190.253C136.09 192.406 143.722 193.385 151.355 193.581C151.355 191.232 151.746 188.688 152.334 186.144Z" fill="url(#paint3_linear)"/>
<defs>
<linearGradient id="paint0_linear" x1="223.61" y1="-27.2574" x2="33.8655" y2="266.527" gradientUnits="userSpaceOnUse">
<stop stop-color="#79F2EC"/>
<stop offset="1" stop-color="#005EF3"/>
</linearGradient>
<linearGradient id="paint1_linear" x1="199.243" y1="-4.74826" x2="52.9348" y2="223.119" gradientUnits="userSpaceOnUse">
<stop stop-color="#79F2EC"/>
<stop offset="1" stop-color="#005EF3"/>
</linearGradient>
<linearGradient id="paint2_linear" x1="95.9238" y1="158.803" x2="113.686" y2="172.166" gradientUnits="userSpaceOnUse">
<stop stop-color="#2D97EE" stop-opacity="0"/>
<stop offset="0.977" stop-color="#0260F1"/>
</linearGradient>
<linearGradient id="paint3_linear" x1="152.277" y1="184.993" x2="128.974" y2="181.408" gradientUnits="userSpaceOnUse">
<stop stop-color="#2D97EE" stop-opacity="0"/>
<stop offset="0.977" stop-color="#0260F1"/>
</linearGradient>
</defs>
</svg>
